<svg width="11" height="17" viewBox="0 0 11 17" fill="none" xmlns="http://www.w3.org/2000/svg">
<path d="M3.5 4H1.5C1.22386 4 1 4.22386 1 4.5V13C1 13.2761 1.22386 13.5 1.5 13.5H3.5C3.77614 13.5 4 13.2761 4 13V4.5C4 4.22386 3.77614 4 3.5 4Z" stroke="white" stroke-linecap="round"/>
<path d="M9.5 6H7.5C7.22386 6 7 6.22386 7 6.5V11.5C7 11.7761 7.22386 12 7.5 12H9.5C9.77614 12 10 11.7761 10 11.5V6.5C10 6.22386 9.77614 6 9.5 6Z" stroke="white" stroke-linecap="round"/>
<path d="M2.5 4V1M2.5 14V16" stroke="white" stroke-linecap="round"/>
<path d="M8.5 6V4M8.5 12V13.7333" stroke="white" stroke-linecap="round"/>
</svg>
