<svg width="15" height="16" viewBox="0 0 15 16" fill="none" xmlns="http://www.w3.org/2000/svg">
<path d="M0.518519 8L6.99364 12.0601C7.15607 12.1619 7.36244 12.1619 7.52488 12.0601L14 8M0.518519 10.5L6.98165 14.8147C7.14972 14.9269 7.3688 14.9269 7.53687 14.8147L14 10.5M7.52685 9.32136L13.3398 5.44074C13.6458 5.23643 13.6338 4.78269 13.3173 4.5949L7.50522 1.14596C7.35283 1.05553 7.16396 1.05251 7.00876 1.13803L0.748653 4.58748C0.413749 4.77202 0.401515 5.2489 0.726518 5.45037L6.9858 9.33048C7.15235 9.43373 7.36387 9.43016 7.52685 9.32136Z" stroke="white" stroke-linecap="round"/>
</svg>
