<svg width="13" height="17" viewBox="0 0 13 17" fill="none" xmlns="http://www.w3.org/2000/svg">
<path d="M4.03678 7.2509L3.78931 7.00339L3.29429 7.49832L3.54176 7.74583L4.03678 7.2509ZM8.86207 13.0671C8.99874 13.2038 9.22035 13.2038 9.35704 13.0672C9.49374 12.9305 9.49376 12.7089 9.35709 12.5722L8.86207 13.0671ZM3.54176 7.74583L8.86207 13.0671L9.35709 12.5722L4.03678 7.2509L3.54176 7.74583Z" fill="white"/>
<circle cx="10.3157" cy="14.2857" r="1.68114" transform="rotate(90 10.3157 14.2857)" stroke="white" stroke-width="0.6"/>
<circle cx="2.3714" cy="14.2839" r="1.68114" transform="rotate(90 2.3714 14.2839)" stroke="white" stroke-width="0.6"/>
<circle cx="2.3919" cy="6.36115" r="1.68114" transform="rotate(90 2.3919 6.36115)" stroke="white" stroke-width="0.6"/>
<path d="M8.15733 0.653256C8.28866 0.511421 8.28015 0.289977 8.13831 0.158647C7.99648 0.0273172 7.77503 0.0358333 7.6437 0.177668L8.15733 0.653256ZM3.77956 5.38121L8.15733 0.653256L7.6437 0.177668L3.26593 4.90562L3.77956 5.38121Z" fill="white"/>
<path d="M12.3554 4.62048C12.4894 4.4812 12.4851 4.25963 12.3458 4.1256C12.2066 3.99157 11.985 3.99583 11.851 4.13512L12.3554 4.62048ZM3.76821 13.5443L12.3554 4.62048L11.851 4.13512L3.26381 13.059L3.76821 13.5443Z" fill="white"/>
</svg>
