<svg width="115" height="31" viewBox="0 0 115 31" fill="none" xmlns="http://www.w3.org/2000/svg">
<path d="M1 20.5C5.16667 21.5 13.8 24.4 15 28C16.2 31.6 21.8333 26.5 24.5 23.5C26.6667 20.5 31.9 15.3 35.5 18.5C36 19.3333 37.5 20.4999 39.5 18.5C42 16 51.5 7.49999 55.5 12C58.7 15.6 59.5 14 61.5 12C62.7944 10.7056 64.6 9.59999 67 9.99999C70 10.5 74.5 10.5 78 7.49999C80.8 5.09999 85.1667 3.5 87 3.5C90.1667 3.16667 97.4761 3.98807 99.5 5C102.5 6.5 103.684 5.63246 104 5C105.5 2 109.668 2.9453 110.5 3.5C112 4.5 113 3 113.5 1.5" stroke="#23A757" stroke-width="2" stroke-linecap="round"/>
</svg>
