<svg width="11" height="15" viewBox="0 0 11 15" fill="none" xmlns="http://www.w3.org/2000/svg">
<path d="M3.47643 4.73139V11.1701M5.70522 4.73139V11.1701M7.934 4.73139V11.1701M5.70522 13.6465H7.41043C9.06729 13.6465 10.4104 12.3034 10.4104 10.6465V3.25024C10.4104 2.9741 10.1866 2.75024 9.91043 2.75024H1.5C1.22386 2.75024 1 2.9741 1 3.25024V10.6465C1 12.3034 2.34315 13.6465 4 13.6465H5.70522Z" stroke="white" stroke-linecap="round"/>
<path d="M1 1.26433H3.47643M10.4104 1.26433H7.934M7.934 1.26433V1.26433C7.934 0.99079 7.71226 0.769043 7.43872 0.769043H3.97172C3.69818 0.769043 3.47643 0.99079 3.47643 1.26433V1.26433M7.934 1.26433H3.47643" stroke="white" stroke-linecap="round"/>
</svg>
