<svg width="16" height="12" viewBox="0 0 16 12" fill="none" xmlns="http://www.w3.org/2000/svg">
<path d="M8.42929 1.05176C4.22685 1.05176 1.83551 4.12142 1.07769 5.82113C1.0254 5.93839 1.0254 6.07084 1.07769 6.1881C1.83551 7.88782 4.22685 10.9575 8.42929 10.9575C12.6658 10.9575 14.7498 7.83785 15.318 6.14704C15.3491 6.05429 15.3491 5.95495 15.318 5.8622C14.7498 4.17139 12.6658 1.05176 8.42929 1.05176Z" stroke="white" stroke-linecap="round"/>
<path d="M10.856 6.00463C10.856 7.37232 9.74724 8.48106 8.37955 8.48106C7.01185 8.48106 5.90312 7.37232 5.90312 6.00463C5.90312 4.63693 7.01185 3.5282 8.37955 3.5282C9.74724 3.5282 10.856 4.63693 10.856 6.00463Z" fill="white"/>
</svg>
