<svg width="14" height="16" viewBox="0 0 14 16" fill="none" xmlns="http://www.w3.org/2000/svg">
<path d="M1 5.4988V14.0799C1 14.3561 1.22386 14.5799 1.5 14.5799H4.46229C4.73843 14.5799 4.96229 14.3561 4.96229 14.0799V6.16006C4.96229 5.66477 5.75474 4.6742 6.94343 4.6742C8.13212 4.6742 8.92457 5.66477 8.92457 6.16006V14.0799C8.92457 14.3561 9.14843 14.5799 9.42457 14.5799H12.3869C12.663 14.5799 12.8869 14.3561 12.8869 14.0799V5.16949C12.7218 3.68363 10.9057 0.711914 6.94343 0.711914C3.24686 0.711914 1.56202 3.29842 1.08455 4.85185C1.02024 5.06108 1 5.27992 1 5.4988Z" stroke="white" stroke-linecap="round"/>
<path d="M1 11.6082H4.96229M8.92457 11.6082H12.8869" stroke="white" stroke-linecap="round"/>
</svg>
