<svg width="17" height="17" viewBox="0 0 17 17" fill="none" xmlns="http://www.w3.org/2000/svg">
<path d="M1 8.81122V11.7829H3.97172M1 8.81122L3.47643 9.3065M1 8.81122L8.42929 1.38193M3.97172 11.7829L3.47643 9.3065M3.97172 11.7829L11.401 4.35364M3.47643 9.3065L9.91515 2.86779M9.91515 2.86779L11.401 4.35364M9.91515 2.86779L8.42929 1.38193M11.401 4.35364L12.038 3.71663C12.2333 3.52136 12.2333 3.20478 12.038 3.00952L9.77341 0.744911C9.57815 0.549649 9.26157 0.549649 9.06631 0.744911L8.42929 1.38193" stroke="white" stroke-linecap="round"/>
<path d="M11.4009 11.2877H10.415C10.1389 11.2877 9.91504 11.5115 9.91504 11.7877V15.2453C9.91504 15.5214 10.1389 15.7453 10.415 15.7453H15.3585C15.6346 15.7453 15.8585 15.5214 15.8585 15.2453V11.7877C15.8585 11.5115 15.6346 11.2877 15.3585 11.2877H11.4009ZM11.4009 11.2877V9.30654C11.4009 8.81125 11.6981 7.82068 12.8868 7.82068C14.0754 7.82068 14.3726 8.81125 14.3726 9.30654M12.8868 13.2688V14.2594" stroke="white" stroke-linecap="round"/>
</svg>
