<svg width="17" height="16" viewBox="0 0 17 16" fill="none" xmlns="http://www.w3.org/2000/svg">
<path d="M8.367 0C3.951 0 0.375 3.584 0.375 8C0.375 12.416 3.951 16 8.367 16C12.791 16 16.375 12.416 16.375 8C16.375 3.584 12.791 0 8.367 0ZM13.911 4.8H11.551C11.3006 3.80917 10.9299 2.85272 10.447 1.952C11.9063 2.4544 13.1359 3.46538 13.911 4.8ZM8.375 1.632C9.039 2.592 9.559 3.656 9.903 4.8H6.847C7.191 3.656 7.711 2.592 8.375 1.632ZM2.183 9.6C2.055 9.088 1.975 8.552 1.975 8C1.975 7.448 2.055 6.912 2.183 6.4H4.887C4.823 6.928 4.775 7.456 4.775 8C4.775 8.544 4.823 9.072 4.887 9.6H2.183ZM2.839 11.2H5.199C5.455 12.2 5.823 13.16 6.303 14.048C4.84217 13.5483 3.61167 12.5367 2.839 11.2ZM5.199 4.8H2.839C3.61167 3.46334 4.84217 2.45165 6.303 1.952C5.82014 2.85272 5.44938 3.80917 5.199 4.8ZM8.375 14.368C7.711 13.408 7.191 12.344 6.847 11.2H9.903C9.559 12.344 9.039 13.408 8.375 14.368ZM10.247 9.6H6.503C6.431 9.072 6.375 8.544 6.375 8C6.375 7.456 6.431 6.92 6.503 6.4H10.247C10.319 6.92 10.375 7.456 10.375 8C10.375 8.544 10.319 9.072 10.247 9.6ZM10.447 14.048C10.927 13.16 11.295 12.2 11.551 11.2H13.911C13.1359 12.5346 11.9063 13.5456 10.447 14.048ZM11.863 9.6C11.927 9.072 11.975 8.544 11.975 8C11.975 7.456 11.927 6.928 11.863 6.4H14.567C14.695 6.912 14.775 7.448 14.775 8C14.775 8.552 14.695 9.088 14.567 9.6H11.863Z" fill="#B7AFFE"/>
</svg>
