<svg width="16" height="16" viewBox="0 0 16 16" fill="none" xmlns="http://www.w3.org/2000/svg">
<path d="M14.1183 8.78125C14.1524 8.52218 14.1706 8.26128 14.173 8C14.1706 7.73872 14.1524 7.47782 14.1183 7.21875L15.8097 5.89454C15.8861 5.8362 15.9383 5.75174 15.9563 5.65733C15.9743 5.56292 15.9569 5.46519 15.9074 5.38282L14.3058 2.60548C14.2594 2.52218 14.1842 2.45871 14.0942 2.42705C14.0043 2.39539 13.9059 2.39773 13.8175 2.43361L11.8215 3.23829C11.4061 2.92129 10.9519 2.65875 10.4699 2.45704L10.1691 0.335956C10.1558 0.242098 10.1089 0.156266 10.037 0.0944587C9.96517 0.0326514 9.87328 -0.000913961 9.77849 1.89359e-05H6.56756C6.47278 -0.000913961 6.38088 0.0326514 6.30902 0.0944587C6.23715 0.156266 6.1902 0.242098 6.17694 0.335956L5.87616 2.45704C5.39354 2.65749 4.93917 2.92013 4.5246 3.23829L2.5207 2.43361C2.43235 2.39773 2.33394 2.39539 2.244 2.42705C2.15406 2.45871 2.0788 2.52218 2.03242 2.60548L0.430857 5.38282C0.38133 5.46519 0.363909 5.56292 0.381926 5.65733C0.399943 5.75174 0.452133 5.8362 0.528513 5.89454L2.21601 7.21875C2.18211 7.47783 2.16385 7.73872 2.16132 8C2.16372 8.26128 2.18198 8.52218 2.21601 8.78125L0.528513 10.1055C0.452133 10.1638 0.399943 10.2483 0.381926 10.3427C0.363909 10.4371 0.38133 10.5348 0.430857 10.6172L2.03242 13.3945C2.0788 13.4778 2.15406 13.5413 2.244 13.5729C2.33394 13.6046 2.43235 13.6023 2.5207 13.5664L4.51679 12.7617C4.93214 13.0787 5.38635 13.3413 5.86834 13.543L6.16912 15.664C6.18239 15.7579 6.22933 15.8437 6.3012 15.9055C6.37307 15.9674 6.46496 16.0009 6.55975 16H9.76287C9.85765 16.0009 9.94954 15.9674 10.0214 15.9055C10.0933 15.8437 10.1402 15.7579 10.1535 15.664L10.4543 13.543C10.9369 13.3425 11.3913 13.0799 11.8058 12.7617L13.8019 13.5664C13.8903 13.6023 13.9887 13.6046 14.0786 13.5729C14.1686 13.5413 14.2438 13.4778 14.2902 13.3945L15.8918 10.6172C15.9413 10.5348 15.9587 10.4371 15.9407 10.3427C15.9227 10.2483 15.8705 10.1638 15.7941 10.1055L14.1183 8.78125ZM8.16912 10.8047C7.61424 10.8055 7.0716 10.6416 6.60986 10.3339C6.14812 10.0262 5.78803 9.58843 5.57515 9.07601C5.36227 8.56359 5.30617 7.99954 5.41395 7.45523C5.52173 6.91092 5.78854 6.41081 6.18062 6.01818C6.57271 5.62554 7.07245 5.35804 7.61661 5.2495C8.16077 5.14096 8.7249 5.19628 9.23761 5.40844C9.75033 5.6206 10.1886 5.98009 10.4969 6.4414C10.8053 6.90271 10.9699 7.44512 10.9699 8C10.9704 8.36813 10.8983 8.73275 10.7578 9.07301C10.6173 9.41327 10.4111 9.72248 10.1509 9.98297C9.89082 10.2435 9.58189 10.4501 9.24183 10.5911C8.90177 10.7321 8.53725 10.8047 8.16912 10.8047Z" fill="#B7AFFE"/>
</svg>
