<svg width="125" height="24" viewBox="0 0 125 24" fill="none" xmlns="http://www.w3.org/2000/svg">
<path d="M25.104 23.44C22.8 23.44 21.136 22.9067 20.112 21.84C19.1093 20.752 18.608 18.992 18.608 16.56V5.232L11.6 22H10.544L1.968 4.592V22H0.368V0.879999H4.272L12.016 16.592L18.576 0.879999H22.768V16.56C22.768 18.5653 22.9387 20.0373 23.28 20.976C23.6213 21.9147 24.2293 22.4693 25.104 22.64V23.44ZM33.4865 22.32C32.0145 22.32 30.7238 21.9787 29.6145 21.296C28.5052 20.6133 27.6412 19.6853 27.0225 18.512C26.4252 17.3173 26.1265 15.9733 26.1265 14.48C26.1265 12.816 26.4252 11.3973 27.0225 10.224C27.6412 9.05067 28.4838 8.16533 29.5505 7.568C30.6172 6.94933 31.8225 6.64 33.1665 6.64C34.4892 6.64 35.6838 6.90667 36.7505 7.44C37.8172 7.97333 38.6598 8.73067 39.2785 9.712C39.8972 10.672 40.2065 11.7813 40.2065 13.04C40.2065 13.4453 40.1852 13.904 40.1425 14.416L40.0785 15.056H30.4465C30.4465 17.0827 30.7558 18.5653 31.3745 19.504C31.9932 20.4213 32.8572 20.88 33.9665 20.88C34.9905 20.88 35.8438 20.656 36.5265 20.208C37.2305 19.7387 37.9025 19.0773 38.5425 18.224L39.5345 18.96C38.9158 19.92 38.1372 20.72 37.1985 21.36C36.2812 22 35.0438 22.32 33.4865 22.32ZM35.8865 13.616C35.8865 11.6107 35.6518 10.192 35.1825 9.36C34.7132 8.50667 34.0412 8.08 33.1665 8.08C32.3558 8.08 31.6945 8.51733 31.1825 9.392C30.6918 10.2453 30.4465 11.6533 30.4465 13.616H35.8865ZM48.0857 22.32C46.6137 22.32 45.4724 21.9253 44.6617 21.136C43.8511 20.3253 43.4457 19.1627 43.4457 17.648V8.4H41.5257V6.96H43.4457V4.08L45.0457 2.16H47.6057V6.96H51.1257V8.4H47.6057V17.84C47.6057 18.992 47.7444 19.792 48.0217 20.24C48.2991 20.6667 48.7151 20.88 49.2697 20.88C49.8671 20.88 50.4644 20.7413 51.0617 20.464C51.2964 20.336 51.5417 20.1867 51.7977 20.016L52.2457 20.912C51.9684 21.1467 51.6377 21.3813 51.2537 21.616C50.3577 22.0853 49.3017 22.32 48.0857 22.32ZM58.1642 22.32C56.4362 22.32 55.0922 21.936 54.1322 21.168C53.1936 20.3787 52.7242 19.3227 52.7242 18C52.7242 16.9333 52.9696 16.048 53.4602 15.344C53.9722 14.64 54.8576 14.1067 56.1162 13.744C57.3749 13.3813 59.1242 13.2 61.3643 13.2H61.8442C61.8442 11.344 61.5882 10.032 61.0763 9.264C60.5642 8.47467 59.8069 8.08 58.8042 8.08C57.9722 8.08 57.2896 8.28267 56.7562 8.688C56.2229 9.09333 55.8389 9.85067 55.6042 10.96H53.8442C53.8442 10.2347 53.8869 9.616 53.9722 9.104C54.0789 8.592 54.3029 8.144 54.6442 7.76C55.3056 7.01333 56.9056 6.64 59.4442 6.64C61.5776 6.64 63.1989 7.20533 64.3083 8.336C65.4389 9.44533 66.0043 11.12 66.0043 13.36V22H63.2843L62.1642 20.56H62.0042C61.8122 20.8587 61.5136 21.1573 61.1082 21.456C60.3829 22.032 59.4016 22.32 58.1642 22.32ZM59.1242 20.72C59.5722 20.72 59.9562 20.6347 60.2762 20.464C60.5962 20.272 60.9056 20.016 61.2042 19.696C61.4816 19.3973 61.6949 19.0453 61.8442 18.64V14.64H61.3643C59.8496 14.64 58.7509 14.9173 58.0682 15.472C57.3856 16.0053 57.0442 16.848 57.0442 18C57.0442 18.8747 57.2256 19.5467 57.5882 20.016C57.9509 20.4853 58.4629 20.72 59.1242 20.72ZM76.1332 22.32C74.4906 22.32 73.0932 21.968 71.9412 21.264C70.7892 20.56 69.9146 19.6213 69.3172 18.448C68.7412 17.2533 68.4532 15.9307 68.4532 14.48C68.4532 13.0293 68.7412 11.7173 69.3172 10.544C69.9146 9.34933 70.7892 8.4 71.9412 7.696C73.0932 6.992 74.4906 6.64 76.1332 6.64C78.6932 6.64 80.3466 7.01333 81.0932 7.76C81.4559 8.12267 81.6799 8.60267 81.7652 9.2C81.8506 9.79733 81.8932 10.8107 81.8932 12.24H80.9332C80.8479 10.896 80.4319 9.872 79.6852 9.168C78.9386 8.44267 77.9146 8.08 76.6132 8.08C75.4399 8.08 74.5012 8.624 73.7972 9.712C73.1146 10.7787 72.7732 12.368 72.7732 14.48C72.7732 18.7467 74.1066 20.88 76.7732 20.88C77.7972 20.88 78.6506 20.656 79.3332 20.208C80.0372 19.7387 80.7092 19.0773 81.3492 18.224L82.3412 18.96C81.7226 19.92 80.9439 20.72 80.0052 21.36C79.0666 22 77.7759 22.32 76.1332 22.32ZM91.6383 22.32C90.0809 22.32 88.7156 21.9787 87.5423 21.296C86.3903 20.592 85.5049 19.6533 84.8863 18.48C84.2676 17.2853 83.9583 15.952 83.9583 14.48C83.9583 13.008 84.2676 11.6853 84.8863 10.512C85.5049 9.31733 86.3903 8.37867 87.5423 7.696C88.7156 6.992 90.0809 6.64 91.6383 6.64C93.1956 6.64 94.5503 6.992 95.7023 7.696C96.8756 8.37867 97.7716 9.31733 98.3903 10.512C99.0089 11.6853 99.3183 13.008 99.3183 14.48C99.3183 15.952 99.0089 17.2853 98.3903 18.48C97.7716 19.6533 96.8756 20.592 95.7023 21.296C94.5503 21.9787 93.1956 22.32 91.6383 22.32ZM91.6383 20.88C92.7263 20.88 93.5583 20.2933 94.1343 19.12C94.7103 17.9467 94.9983 16.4 94.9983 14.48C94.9983 12.56 94.7103 11.0133 94.1343 9.84C93.5583 8.66667 92.7263 8.08 91.6383 8.08C90.5503 8.08 89.7183 8.66667 89.1423 9.84C88.5663 11.0133 88.2783 12.56 88.2783 14.48C88.2783 16.4 88.5663 17.9467 89.1423 19.12C89.7183 20.2933 90.5503 20.88 91.6383 20.88ZM104.7 5.232C103.932 5.232 103.335 4.99733 102.908 4.528C102.503 4.05867 102.3 3.48267 102.3 2.8C102.3 2.24533 102.46 1.808 102.78 1.488C103.122 1.168 103.548 1.008 104.06 1.008C104.828 1.008 105.415 1.24267 105.82 1.712C106.247 2.18133 106.46 2.75733 106.46 3.44C106.46 3.99467 106.29 4.432 105.948 4.752C105.628 5.072 105.212 5.232 104.7 5.232ZM102.62 11.12C102.62 10.032 102.471 9.232 102.172 8.72C101.874 8.18667 101.276 7.92 100.38 7.92H100.06V6.96H103.9C104.668 6.96 105.255 7.088 105.66 7.344C106.066 7.6 106.354 8.02667 106.524 8.624C106.695 9.2 106.78 10.032 106.78 11.12V22H102.62V11.12ZM110.814 11.12C110.814 10.032 110.664 9.232 110.366 8.72C110.088 8.18667 109.502 7.92 108.606 7.92H108.286V6.96H111.454C112.179 6.96 112.744 7.056 113.15 7.248C113.576 7.41867 113.907 7.71733 114.142 8.144C115.23 7.14133 116.787 6.64 118.814 6.64C120.84 6.64 122.355 7.12 123.358 8.08C124.382 9.01867 124.894 10.5013 124.894 12.528V22H120.734V12.496C120.734 11.024 120.456 9.94667 119.902 9.264C119.368 8.58133 118.632 8.24 117.694 8.24C117.032 8.24 116.446 8.336 115.934 8.528C115.443 8.69867 115.048 8.93333 114.75 9.232L114.846 9.68C114.931 9.936 114.974 10.352 114.974 10.928V22H110.814V11.12Z" fill="url(#paint0_linear_44_230)"/>
<defs>
<linearGradient id="paint0_linear_44_230" x1="127" y1="-3.00002" x2="-2.00001" y2="25" gradientUnits="userSpaceOnUse">
<stop stop-color="#E86EA0"/>
<stop offset="1" stop-color="#BA28FF"/>
</linearGradient>
</defs>
</svg>
