<svg width="30" height="36" viewBox="0 0 30 36" fill="none" xmlns="http://www.w3.org/2000/svg">
<path d="M25.0815 18.8712C25.0644 15.9442 26.3906 13.7382 29.0687 12.1116C27.5708 9.96567 25.3047 8.78541 22.3176 8.55794C19.4893 8.33476 16.3948 10.206 15.2618 10.206C14.0644 10.206 11.3262 8.63519 9.17167 8.63519C4.72532 8.70386 0 12.1803 0 19.2532C0 21.3433 0.381974 23.5021 1.14592 25.7253C2.16738 28.6524 5.84978 35.824 9.69099 35.7082C11.6996 35.6609 13.1202 34.2833 15.7339 34.2833C18.2704 34.2833 19.5837 35.7082 21.824 35.7082C25.6996 35.6524 29.03 29.1331 30 26.1974C24.8026 23.7468 25.0815 19.0215 25.0815 18.8712ZM20.5708 5.78112C22.7468 3.19742 22.5494 0.845494 22.485 0C20.5622 0.111588 18.3391 1.30901 17.073 2.78112C15.6781 4.36052 14.8584 6.3133 15.0343 8.51502C17.1116 8.67382 19.0086 7.60515 20.5708 5.78112Z" fill="white"/>
</svg>
