<svg width="133" height="42" viewBox="0 0 133 42" fill="none" xmlns="http://www.w3.org/2000/svg">
<path d="M1 19.103C1.24605 20.969 2.19915 23.4657 4.1757 20.9949C4.71578 20.3198 5.82387 20.3961 6.07967 21.222C7.41949 25.5476 9.15292 33.043 8.86 39.8553C8.59336 46.0565 11.6587 25.3953 16.9247 17.8085C17.366 17.1726 18.2937 17.395 18.5618 18.1211C19.2777 20.0607 20.4792 22.4124 22.0087 23.2372C22.45 23.4752 22.939 23.1584 23.1447 22.701C24.0158 20.7636 25.9573 17.6285 26.7368 4.54846C26.7471 4.37545 26.958 4.28751 27.0798 4.41074L29.1794 6.53369C29.687 7.04701 30.5691 6.87366 30.9323 6.24973C31.9805 4.4489 33.5793 2.76615 34.6233 2.76615C35.4439 2.76615 35.108 5.10465 36.1508 7.21835C36.2801 7.4803 36.5346 7.65032 36.821 7.70766C40.9092 8.52615 48.9264 11.4595 53.3032 17.5831C53.7598 18.222 54.766 18.2122 55.1685 17.538C56.8802 14.6704 59.6358 10.6697 61.8967 9.28517C62.2782 9.05151 62.754 9.19578 63.0206 9.55515L63.9895 10.8614C64.482 11.5255 65.5103 11.3143 65.9253 10.5992C67.7689 7.42188 69.2705 15.7286 70.43 6.74C71.2246 0.579812 72.6949 8.88357 74.36 8.06462C76.3921 7.06514 78.9057 4.76976 79.8972 1.50666C79.9506 1.3308 80.197 1.29976 80.2849 1.46119C81.1053 2.96851 83.8015 7.78468 85.9765 10.0924C86.0899 10.2128 86.2316 10.2985 86.3947 10.3259C87.1127 10.4466 89.2175 10.5301 90.08 7.62303C91.128 4.09072 91.39 8.94765 92.7 10.2723C93.8964 11.4821 100.192 4.9582 108.259 3.14473C109.726 2.81512 111.217 3.3863 112.273 4.45494L113.978 6.17884C114.304 6.50788 114.812 6.57066 115.208 6.33062L118.353 4.42264C118.686 4.2203 119.107 4.23036 119.431 4.4484L123.653 7.29506C123.954 7.49757 124.34 7.52176 124.664 7.3583L126.919 6.21791C127.337 6.00687 127.845 6.11339 128.142 6.47436L132 11.1554" stroke="#23A757" stroke-width="2" stroke-linecap="round"/>
</svg>
