<svg width="133" height="42" viewBox="0 0 133 42" fill="none" xmlns="http://www.w3.org/2000/svg">
<path d="M1 6.74857C6.5 8.01175 7.95599 12.6064 11.5 15.5908C13.5 17.2751 16 34.9596 18.5 15.5908C20.0834 3.32343 18.5 -9.9491 22.5 15.5908C22.8058 17.5435 31.9393 18.5383 36.5 18.5383C40.5 18.5383 40.4231 19.3804 41.5 22.3278C42.1667 24.1524 44.5 28.3911 48.5 30.749C50.3333 32.1525 53.8173 35.6661 55 37.907C57 41.6966 57.9 41.865 59.5 39.1702C60.6667 37.6263 60.5 35.8017 65.5 35.8017C70.5 35.8017 67.5 45.7095 73 33.6964C74.4944 30.4323 82.5 6.74857 84.5 17.452C86.5 28.1555 86 34.9596 101 34.9596C103.5 34.9596 106.505 26.0598 117.5 32.0122C124.047 35.5565 127.532 29.3768 131.229 29.3891C131.687 29.3906 132 29.8067 132 30.2646V32.0122" stroke="#DA1414" stroke-width="2" stroke-linecap="round"/>
</svg>
