<svg width="133" height="41" viewBox="0 0 133 41" fill="none" xmlns="http://www.w3.org/2000/svg">
<path d="M1 5.5977V7.52309C1 8.61492 2.50003 8.91667 2.92222 7.90977L5.03685 2.86636C5.2387 2.38496 5.95049 2.49604 5.99606 3.01605L9.21246 39.7223C9.23239 39.9497 9.55652 39.9716 9.60679 39.7489L12.743 25.8528C12.907 25.1262 13.9062 25.0367 14.1967 25.7226V25.7226C14.4761 26.3822 15.4269 26.3324 15.6359 25.6472L16.951 21.3343C17.2745 20.2736 18.827 20.4494 18.9051 21.5556L20.0258 37.4328C20.0666 38.0113 20.8944 38.068 21.0138 37.5005L27.3348 7.45595C27.4406 6.9531 28.1451 6.91778 28.3006 7.40752L29.1144 9.96952C29.3935 10.8481 30.6495 10.9311 31.0841 10.1182C31.9605 8.4791 33.1371 6.53904 34.404 5.02777C34.9017 4.43411 35.8047 4.71896 35.9571 5.4785L37.1205 11.2776C37.2459 11.903 37.9253 12.2472 38.5594 12.1774C39.6491 12.0574 40.9338 12.3621 41.856 13.6865C42.3858 14.4475 44.1545 14.5663 44.4352 13.6826V13.6826C44.6151 13.1162 45.3125 12.9139 45.7677 13.296L49.0276 16.0328C49.1372 16.1248 49.2252 16.2383 49.2875 16.3672C50.5003 18.8746 53.0857 23.5287 54.4515 23.5287C55.6442 23.5287 58.4011 13.2142 60.1867 7.86977C60.4695 7.02328 61.5782 7.02679 61.9012 7.85878L65.4392 16.9719C65.6546 17.5268 66.3042 17.7718 66.8324 17.4974L79.2091 11.0673C79.7722 10.7747 80.4604 11.0766 80.678 11.6726C82.2784 16.0575 85.2579 18.0115 86.8729 18.0115C87.8327 18.0115 88.4858 17.1841 88.9043 16.209C89.256 15.3897 90.4603 15.0624 91.0199 15.7565L93.7924 19.1949C94.0979 19.5738 94.6289 19.6776 95.0463 19.4274C96.4955 18.5588 99.8386 16.4388 102.5 13.8736C105.624 10.8629 109.987 5.02351 111.139 1.97206C111.217 1.76699 111.608 1.76902 111.663 1.98117L114.564 13.1428C114.809 14.0853 116.119 14.1574 116.466 13.2475L118.425 8.10942C118.583 7.69256 119.167 7.67671 119.349 8.08435L121.659 13.2799C121.82 13.6409 122.178 13.8736 122.573 13.8736H127.385C127.791 13.8736 128.157 14.1194 128.311 14.4955L132 23.5287" stroke="#DA1414" stroke-width="2" stroke-linecap="round"/>
</svg>
