<svg width="133" height="42" viewBox="0 0 133 42" fill="none" xmlns="http://www.w3.org/2000/svg">
<path d="M1 25.8889L2.4965 22.4732C2.5751 22.2938 2.83802 22.3226 2.87591 22.5148L4.00787 28.2562C4.03573 28.3975 4.19781 28.4624 4.31263 28.3754C5.13884 27.7494 7.77778 25.5783 8.01003 23.2222C9.76142 5.45578 10.3926 1.89343 10.5754 1.17914C10.6022 1.0742 10.6412 1.08384 10.6446 1.19211C10.7025 3.01617 11.2181 17.3151 13.2676 21.8889C15.2061 26.2151 18.1738 28.1051 18.8313 28.4829C18.9095 28.5278 19.0052 28.5091 19.0657 28.4421L22.9776 24.113C23.3965 23.6495 24.133 23.6793 24.5132 24.175L29.7048 30.9462C29.7987 31.0687 29.9899 31.0432 30.0485 30.9005L31.8637 26.4813C31.9382 26.2999 32.2021 26.3229 32.2441 26.5145L33.7674 33.4683C33.8038 33.6345 34.018 33.6823 34.1215 33.5472L39.7975 26.1443C39.8877 26.0266 40.0701 26.0446 40.1356 26.1776L43.7689 33.5489C43.84 33.6931 44.0436 33.6987 44.1225 33.5586L48.9852 24.9261C49.0683 24.7786 49.2856 24.7946 49.3462 24.9527L52.0731 32.0657C52.1389 32.2373 52.3817 32.2368 52.4468 32.065L54.3908 26.9379C54.4257 26.8457 54.5175 26.7918 54.6136 26.8138C55.7963 27.0839 63.1277 28.8832 65.8428 32.5556C68.8002 36.5556 68.0334 32.5555 70.2241 26.7778C72.4147 21 72.8528 45 75.4816 37.4444C77.4536 31.7767 78.1928 28.6099 78.4391 27.3812C78.4771 27.1915 78.7463 27.1481 78.8374 27.3189L84.0691 37.1166C84.1441 37.2571 84.3454 37.2578 84.4213 37.1177L87.6173 31.2229C88.077 30.3751 89.3522 30.6051 89.4867 31.5601L90.7596 40.5993C90.7827 40.7634 90.9148 40.7839 90.9664 40.6265C91.2108 39.8825 91.7941 37.6801 93.0067 31.2222C94.7592 21.8889 95.1973 22.7778 97.8261 32.5556C100.455 42.3333 101.567 33.4444 102.645 29.8889C103.536 26.9516 111.925 32.8104 114.816 34.9368C115.325 35.3115 116.051 35.1363 116.33 34.5691L118.397 30.3753C118.764 29.6315 119.825 29.6315 120.191 30.3753L124.474 39.0651C124.851 39.8289 125.949 39.8027 126.288 39.0218L132 25.8889" stroke="#DA1414" stroke-width="2" stroke-linecap="round"/>
</svg>
