<svg width="133" height="42" viewBox="0 0 133 42" fill="none" xmlns="http://www.w3.org/2000/svg">
<path d="M1 18.6173L1.77279 29.5891C1.78903 29.8195 2.11825 29.8435 2.16767 29.6178L5.13085 16.0848C5.17791 15.8699 5.48703 15.8775 5.52346 16.0945L9.55532 40.1124C9.59073 40.3234 9.88799 40.3389 9.94526 40.1328L12.6895 30.2561C12.8676 29.6152 13.7381 29.5227 14.0469 30.1119V30.1119C14.3589 30.7073 15.2406 30.605 15.4079 29.954L16.7565 24.7077C16.9991 23.7637 18.3112 23.6892 18.6591 24.5997L21.7347 32.6474C21.8039 32.8284 22.0642 32.8152 22.1147 32.6281L26.6412 15.8446C26.9027 14.8748 28.2706 14.8527 28.5633 15.8135L29.8997 20.2001C30.1581 21.0484 31.2489 21.1358 31.6238 20.3322C32.783 17.8474 34.571 14.0709 36.196 12.0487C36.6404 11.4956 37.4247 11.7524 37.5956 12.4411L38.7193 16.9682C38.8615 17.5411 39.544 17.8913 40.0186 18.2424C41.1611 19.0877 42.1604 21.8767 42.6032 25.1772C42.6349 25.4131 43.0189 25.4252 43.0562 25.1901L44.41 16.6579C44.526 15.9271 45.3589 15.5813 45.9377 16.0423C47.3353 17.1555 49.5414 19.0778 50.7747 21.0001C52.6757 23.9631 54.6174 26.926 56.0148 26.926C57.2592 26.926 59.0185 19.8763 60.5195 16.2405C60.7687 15.6368 61.5265 15.5059 62.0059 15.9495L63.9599 17.7574C65.1533 18.8617 66.8229 19.326 68.3016 18.6501C70.1155 17.8209 72.6035 16.2865 74.5515 13.5926C77.4661 9.562 79.6504 3.45503 80.2846 1.57259C80.3462 1.3899 80.608 1.38732 80.6726 1.56897C82.2158 5.91013 85.3519 13.5926 87.0228 13.5926C87.9616 13.5926 88.6061 12.9506 89.024 12.1842C89.4214 11.4556 90.4922 11.1106 91.0783 11.6981L93.7803 14.4066C94.1543 14.7814 94.7556 14.7998 95.1517 14.4485L103.288 7.23395C103.708 6.86175 104.355 6.90871 104.693 7.35621C106.927 10.3106 106.748 11.6992 110.54 6.10344C110.965 5.47565 111.909 5.51919 112.265 6.18911L114.47 10.347C114.856 11.0744 115.907 11.0497 116.258 10.3048L118.064 6.47619C118.412 5.73768 119.451 5.7053 119.845 6.42068L121.672 9.74132C121.847 10.0608 122.183 10.2593 122.548 10.2593H127.455C127.832 10.2593 128.177 10.4716 128.347 10.8083L132 18.037" stroke="#23A757" stroke-width="2" stroke-linecap="round"/>
</svg>
