<svg width="133" height="39" viewBox="0 0 133 39" fill="none" xmlns="http://www.w3.org/2000/svg">
<path d="M1 3.5977V5.52309C1 6.61492 2.50003 6.91667 2.92222 5.90977L4.25431 2.73273C4.658 1.76993 6.08158 1.99208 6.17271 3.03211L9.21246 37.7223C9.23239 37.9497 9.55652 37.9716 9.60679 37.7489L12.743 23.8528C12.907 23.1262 13.9062 23.0367 14.1967 23.7226V23.7226C14.4761 24.3822 15.4269 24.3324 15.6359 23.6472L17.1257 18.7616C17.4419 17.7246 18.9512 17.8616 19.0756 18.9385L19.7065 24.401C19.8319 25.4858 21.3571 25.6132 21.6606 24.5641L26.8099 6.7638C27.0846 5.81394 28.4242 5.79654 28.7235 6.73895L29.1144 7.96952C29.3935 8.84811 30.6495 8.93111 31.0841 8.11816C31.9605 6.4791 33.1371 4.53904 34.404 3.02777C34.9017 2.43411 35.8047 2.71896 35.9571 3.4785L37.1205 9.27756C37.2459 9.90302 37.9253 10.2472 38.5594 10.1774C39.6491 10.0574 40.9338 10.3621 41.856 11.6865C42.3858 12.4475 44.1545 12.5663 44.4352 11.6826V11.6826C44.6151 11.1162 45.3125 10.9139 45.7677 11.296L49.0276 14.0328C49.1372 14.1248 49.2252 14.2383 49.2875 14.3672C50.5003 16.8746 53.0857 21.5287 54.4515 21.5287C55.688 21.5287 58.6055 15.8072 60.3792 11.933C60.6846 11.266 61.5789 11.1301 62.0614 11.6826L65.1109 15.1736C65.5019 15.6212 66.1947 15.6311 66.5982 15.1948L79.0866 1.69229C79.6177 1.11813 80.5742 1.34591 80.7963 2.09579C82.4216 7.583 85.2969 16.0115 86.8729 16.0115C87.8327 16.0115 88.4858 15.1841 88.9044 14.209C89.256 13.3897 90.4603 13.0624 91.0199 13.7565L93.5891 16.9428C93.9739 17.42 94.6936 17.4418 95.1066 16.9887L103.608 7.66161C103.829 7.41991 104.152 7.30318 104.478 7.33393C105.722 7.4514 107.399 7.46007 108.794 7.12893C109.781 6.89473 112.431 7.3631 112.831 8.29525L114.378 11.902C114.732 12.7279 115.911 12.7038 116.231 11.864L117.993 7.24184C118.311 6.4081 119.478 6.37641 119.841 7.19168L121.659 11.2799C121.82 11.6409 122.178 11.8736 122.573 11.8736H127.385C127.791 11.8736 128.157 12.1194 128.311 12.4955L132 21.5287" stroke="#DA1414" stroke-width="2" stroke-linecap="round"/>
</svg>
