<svg width="133" height="41" viewBox="0 0 133 41" fill="none" xmlns="http://www.w3.org/2000/svg">
<path d="M1 39.6623L3.04157 34.5658C3.38556 33.7071 4.6347 33.7277 4.99744 34.5787C6.51807 38.146 8.52519 41.1125 8.8076 34.7654C8.80782 34.7605 8.8077 34.7618 8.80799 34.7569C8.81735 34.5981 10.5442 5.3197 10.9768 1.76201C11.4106 -1.80535 11.8444 7.55821 12.7119 21.3807C12.9685 25.4689 16.0859 27.8472 16.6159 30.2987L18.9703 38.5965C19.2167 39.4647 20.3963 39.5881 20.817 38.7897L24.7074 31.4069C25.0066 30.8392 25.7554 30.6962 26.2427 31.1136L29.8461 34.2003C30.2205 34.521 30.7728 34.521 31.1472 34.2003L32.319 33.1966C32.7465 32.8304 33.3919 32.889 33.7464 33.3263L36.5367 36.7682C36.9741 37.3077 37.8147 37.248 38.1715 36.6521L40.1683 33.3166C40.5264 32.7186 41.371 32.661 41.8068 33.205L45.199 37.4391C46.1972 38.6851 47.9965 38.931 49.2925 37.9985L54.047 34.5774C55.0226 33.8754 56.323 33.8235 57.3515 34.4453L61.7513 37.1057C62.5565 37.5926 63.5434 37.6735 64.4171 37.3242L68.1763 35.8215C69.9156 35.1262 71.8152 34.9334 73.6587 35.265L87.5251 37.7594C87.9621 37.838 88.411 37.8187 88.8396 37.7027L104.227 33.5405C104.509 33.464 104.811 33.5153 105.053 33.6809L110.669 37.5298C110.982 37.7437 111.388 37.7631 111.719 37.5798L115.547 35.4613C116.349 35.0168 117.312 34.9644 118.158 35.3189L127.79 39.3526C128.222 39.5336 128.722 39.3903 128.993 39.0078L132 34.7576" stroke="#DA1414" stroke-width="2" stroke-linecap="round"/>
</svg>
