<svg width="119" height="34" viewBox="0 0 119 34" fill="none" xmlns="http://www.w3.org/2000/svg">
<path d="M1 19.8968C3.08 21.8427 7.76 25.5223 9.84 24.6732C12.44 23.6118 15.5103 28.4232 16.6 29.9803C19.1229 33.5851 23.6042 33.692 26.7183 30.7859C26.9098 30.6073 27.1027 30.4311 27.3206 30.2857C29.4092 28.8925 33.9762 27.1627 37.92 29.9803C40.8915 32.1031 41.248 32.4215 42.08 29.4496C43.4479 23.6906 47.7847 13.7999 54.2915 19.6477C54.4684 19.8067 54.6314 19.9923 54.7869 20.1723C56.9639 22.6926 61.4107 24.5807 63.92 22.0197C68.5272 17.3176 68.08 12.9976 70.16 15.1205C72.24 17.2433 73.8 19.8968 75.88 16.1819C76.8198 14.5033 79.52 11.5303 85.24 9.40752C90.96 7.28471 95.7092 -0.234738 100.84 2.38355C106.04 5.03713 107.6 7.15979 110.72 4.50627C113.84 1.85274 115.4 4.50627 118 7.15981" stroke="#DA1414" stroke-width="2" stroke-linecap="round"/>
</svg>
