<svg width="118" height="32" viewBox="0 0 118 32" fill="none" xmlns="http://www.w3.org/2000/svg">
<path d="M1 21.7008C5.2963 22.7463 14.1982 25.7783 15.4356 29.542C16.6729 33.3058 22.4815 27.9738 25.2311 24.8373C27.3458 21.8684 32.2938 16.8386 35.9647 19.1472C36.3929 19.4164 36.681 19.8582 37.0574 20.1962C37.7939 20.8574 39.089 21.2411 40.6978 19.6099C43.2756 16.9962 53.0711 8.10948 57.1956 12.8142C60.4951 16.578 61.32 14.9052 63.3822 12.8142C64.7169 11.4609 66.5787 10.305 69.0533 10.7232C72.1467 11.246 76.7867 11.246 80.3956 8.10949C83.2827 5.60031 87.7852 3.92753 89.6756 3.92753C92.9407 3.57903 100.478 4.4378 102.564 5.49577C105.658 7.064 106.878 6.15699 107.204 5.49577C108.751 2.35929 113.049 3.3476 113.907 3.92753C115.453 4.97302 116.484 3.40478 117 1.83655" stroke="#23A757" stroke-width="2" stroke-linecap="round"/>
</svg>
