<svg width="114" height="36" viewBox="0 0 114 36" fill="none" xmlns="http://www.w3.org/2000/svg">
<path d="M1 20.7076C2.33333 22.3743 5.7 25.4076 8.5 24.2076C9.66667 22.8743 12.7 22.2076 15.5 30.2076C16.6667 33.3743 20.2 37.8076 25 30.2076C29.8 22.6076 34.6667 25.0409 36.5 27.2076C37.5 28.2076 39.6 29.1076 40 24.7076C40.5 19.2076 47.5 14.7076 50.5 17.7076C52.9 20.1076 55.8333 17.7076 57 16.2076C60.6667 11.041 68.7 1.60762 71.5 5.20762C75 9.70762 75.5 12.2076 78.5 8.7076C81.5 5.20762 86 4.7076 88.5 6.7076C91 8.7076 91.5 11.2076 93 6.7076C94.5 2.2076 96.5 -0.792418 98.5 2.2076C100.5 5.20762 101.5 9.20762 105.5 8.7076C109.5 8.20758 112.5 9.70758 112.5 11.7076" stroke="#DA1414" stroke-width="2" stroke-linecap="round"/>
</svg>
