<svg width="115" height="32" viewBox="0 0 115 32" fill="none" xmlns="http://www.w3.org/2000/svg">
<path d="M1 18.0151C3 19.8485 7.5 23.3151 9.5 22.5151C12 21.5151 14.9522 26.0482 16 27.5151C18.5 31.0152 23 31.0151 26 28.0151C27.8333 26.6818 32.5 24.7151 36.5 27.5151C39.3572 29.5152 39.7 29.8151 40.5 27.0151C41.8333 21.5151 46.1 12.0151 52.5 18.0151C54.5 20.5152 59 22.5152 61.5 20.0152C65.93 15.5851 65.5 11.5152 67.5 13.5152C69.5 15.5152 71 18.0151 73 14.5151C73.9037 12.9337 76.5 10.1328 82 8.13279C87.5 6.1328 92.0665 -0.951551 97 1.51523C102 4.01527 103.5 6.01511 106.5 3.51513C109.5 1.01514 111 3.51513 113.5 6.01513" stroke="#DA1414" stroke-width="2" stroke-linecap="round"/>
</svg>
