<svg width="114" height="36" viewBox="0 0 114 36" fill="none" xmlns="http://www.w3.org/2000/svg">
<path d="M1 11.6886C4.19944 17.9351 11.2427 30.4766 15.7898 34.7234C16.3217 35.2201 17.1149 34.8718 17.2213 34.1519C18.494 25.536 21.1053 11.3201 23 10.6886C24.5 10.1886 26 9.18856 26.5 8.68857C27.4639 7.72464 30.2862 7.03944 37.6539 20.6055C38.0272 21.2929 39.0123 21.3248 39.4128 20.6529C42.2626 15.8722 46.7829 8.40567 47.5 7.68856C48.5 6.68856 49.5 6.18856 51.5 7.68856C52.8433 8.69604 56.1603 11.4187 58.3736 13.2527C58.9158 13.7021 59.74 13.467 59.9662 12.8C61.7159 7.64085 63.8501 2.07166 66.5 1.18858C68 0.688721 69.5 0.688707 76.5 7.68856C78.9 10.4886 83.5 7.52191 85.5 5.68858C87.5 4.18857 92 2.48855 94 7.68856L101.306 19.5608C101.654 20.1262 102.447 20.2032 102.919 19.7366C104.927 17.7525 107.974 15.321 109 16.6886L113 20.6886" stroke="#DA1414" stroke-width="2" stroke-linecap="round"/>
</svg>
