<svg width="13" height="15" viewBox="0 0 13 15" fill="none" xmlns="http://www.w3.org/2000/svg">
<path d="M10.2503 13.1C10.2503 13.0447 10.2056 13 10.1503 13H9.3503C9.29507 13 9.2503 13.0447 9.2503 13.1V14H1.00003V3.74967H1.90007C1.95529 3.74967 2.00007 3.70489 2.00007 3.64967V2.84963C2.00007 2.79441 1.95529 2.74963 1.90007 2.74963H0.5C0.223858 2.74963 0 2.97349 0 3.24963V14.5C0 14.7762 0.223858 15 0.5 15H9.75033C10.0265 15 10.2503 14.7762 10.2503 14.5V13.1Z" fill="url(#paint0_linear_23_1042)"/>
<path d="M3.5 0C3.22386 0 3 0.223858 3 0.5V11.5004C3 11.7765 3.22386 12.0004 3.5 12.0004H12.5003C12.7765 12.0004 13.0003 11.7765 13.0003 11.5004V4.50015C13.0003 4.36754 12.9476 4.24037 12.8539 4.1466L8.85373 0.146446C8.75996 0.0526781 8.63278 0 8.50017 0H3.5ZM12.0003 10.9004C12.0003 10.9556 11.9555 11.0004 11.9003 11.0004H4.10003C4.0448 11.0004 4.00003 10.9556 4.00003 10.9004V1.10003C4.00003 1.0448 4.0448 1.00003 4.10003 1.00003H7.15014C7.20537 1.00003 7.25014 1.0448 7.25014 1.10003V5.25019C7.25014 5.52633 7.474 5.75019 7.75014 5.75019H11.9003C11.9555 5.75019 12.0003 5.79496 12.0003 5.85019V10.9004ZM12.0003 4.75015H8.35017C8.29494 4.75015 8.25017 4.70538 8.25017 4.65015V1.00003H8.29305L12.0003 4.70725V4.75015Z" fill="url(#paint1_linear_23_1042)"/>
<defs>
<linearGradient id="paint0_linear_23_1042" x1="5.12517" y1="2.74963" x2="5.12517" y2="15" gradientUnits="userSpaceOnUse">
<stop stop-color="#E86EA0"/>
<stop offset="1" stop-color="#BA28FF"/>
</linearGradient>
<linearGradient id="paint1_linear_23_1042" x1="8.00016" y1="0" x2="8.00016" y2="12.0004" gradientUnits="userSpaceOnUse">
<stop stop-color="#E86EA0"/>
<stop offset="1" stop-color="#BA28FF"/>
</linearGradient>
</defs>
</svg>
