<svg width="116" height="37" viewBox="0 0 116 37" fill="none" xmlns="http://www.w3.org/2000/svg">
<path d="M1 21.8959C2.1924 23.3798 4.97535 25.9278 7.56989 25.7258C8.31486 25.6678 8.88901 25.0843 9.57901 24.7975C11.0738 24.1763 13.5264 25.027 15.8251 31.5654C17.0179 34.7886 20.6305 39.3011 25.5381 31.5654C30.4457 23.8298 35.4215 26.3066 37.296 28.5119C38.3184 29.5298 40.4655 30.4458 40.8744 25.9673C41.3856 20.3692 48.5426 15.7889 51.6099 18.8424C54.0637 21.2852 57.0628 18.8424 58.2556 17.3157C62.0045 12.0568 70.2179 2.45513 73.0807 6.11937C76.6592 10.6997 77.1704 13.2442 80.2377 9.6818C83.3049 6.11937 87.9058 5.61043 90.4619 7.64612C93.0179 9.6818 93.5291 12.2264 95.0628 7.64612C96.5964 3.06582 98.6413 0.0122684 100.686 3.06582C102.731 6.11937 103.753 10.1907 107.843 9.6818C111.933 9.17286 115 10.6996 115 12.7353" stroke="#DA1414" stroke-width="2" stroke-linecap="round"/>
</svg>
