<svg width="119" height="35" viewBox="0 0 119 35" fill="none" xmlns="http://www.w3.org/2000/svg">
<path d="M1 12.9293C3.50771 17.7933 8.27594 26.335 12.5072 32.1591C14.6409 35.096 18.3011 33.7682 18.9193 30.1909C20.3604 21.8509 22.408 12.4128 23.9821 11.8915C25.5491 11.3726 27.1161 10.3348 27.6384 9.81591C28.4713 8.98843 30.6326 8.35887 35.7107 16.1342C37.8424 19.3981 42.7338 19.5445 44.7709 16.2207C46.9999 12.5835 49.0976 9.25324 49.5759 8.7781C50.6205 7.74029 51.6652 7.22139 53.7545 8.7781C54.361 9.23004 55.3528 10.0145 56.4701 10.9134C59.2052 13.1136 63.2469 11.9165 64.608 8.68088C66.005 5.36005 67.5972 2.63719 69.4241 2.03238C70.9911 1.51362 72.558 1.51361 79.8705 8.7781C82.3777 11.684 87.183 8.60515 89.2723 6.7025C91.304 5.18872 95.8051 3.47867 97.973 8.34771C98.0987 8.62991 98.2336 8.91025 98.3963 9.17286L103.045 16.6771C104.786 19.4882 108.6 19.5694 111.564 18.1032C112.372 17.7035 113.085 17.5627 113.564 17.8749C113.762 18.0044 113.906 18.2021 114.074 18.369L118 22.2696" stroke="#DA1414" stroke-width="2" stroke-linecap="round"/>
</svg>
