<svg width="15" height="15" viewBox="0 0 15 15" fill="none" xmlns="http://www.w3.org/2000/svg">
  <path
    d="M7.4925 0C3.3525 0 0 3.36 0 7.5C0 11.64 3.3525 15 7.4925 15C11.64 15 15 11.64 15 7.5C15 3.36 11.64 0 7.4925 0ZM12.69 4.5H10.4775C10.2428 3.57109 9.89518 2.67442 9.4425 1.83C10.8106 2.301 11.9634 3.24879 12.69 4.5ZM7.5 1.53C8.1225 2.43 8.61 3.4275 8.9325 4.5H6.0675C6.39 3.4275 6.8775 2.43 7.5 1.53ZM1.695 9C1.575 8.52 1.5 8.0175 1.5 7.5C1.5 6.9825 1.575 6.48 1.695 6H4.23C4.17 6.495 4.125 6.99 4.125 7.5C4.125 8.01 4.17 8.505 4.23 9H1.695ZM2.31 10.5H4.5225C4.7625 11.4375 5.1075 12.3375 5.5575 13.17C4.18798 12.7016 3.03437 11.7531 2.31 10.5ZM4.5225 4.5H2.31C3.03437 3.24688 4.18798 2.29843 5.5575 1.83C5.10482 2.67442 4.75723 3.57109 4.5225 4.5ZM7.5 13.47C6.8775 12.57 6.39 11.5725 6.0675 10.5H8.9325C8.61 11.5725 8.1225 12.57 7.5 13.47ZM9.255 9H5.745C5.6775 8.505 5.625 8.01 5.625 7.5C5.625 6.99 5.6775 6.4875 5.745 6H9.255C9.3225 6.4875 9.375 6.99 9.375 7.5C9.375 8.01 9.3225 8.505 9.255 9ZM9.4425 13.17C9.8925 12.3375 10.2375 11.4375 10.4775 10.5H12.69C11.9634 11.7512 10.8106 12.699 9.4425 13.17ZM10.77 9C10.83 8.505 10.875 8.01 10.875 7.5C10.875 6.99 10.83 6.495 10.77 6H13.305C13.425 6.48 13.5 6.9825 13.5 7.5C13.5 8.0175 13.425 8.52 13.305 9H10.77Z"

    fill="#B7AFFE"
  />
</svg>
