<svg width="15" height="15" viewBox="0 0 15 15" fill="none" xmlns="http://www.w3.org/2000/svg">
<path d="M12.8844 8.23242C12.9163 7.98954 12.9334 7.74495 12.9356 7.5C12.9334 7.25505 12.9163 7.01046 12.8844 6.76758L14.4701 5.52613C14.5417 5.47143 14.5906 5.39226 14.6075 5.30375C14.6244 5.21524 14.608 5.12361 14.5616 5.04639L13.0601 2.44264C13.0167 2.36454 12.9461 2.30504 12.8618 2.27536C12.7775 2.24568 12.6852 2.24787 12.6024 2.28151L10.7311 3.0359C10.3417 2.73871 9.91584 2.49257 9.46396 2.30348L9.18198 0.314958C9.16955 0.226967 9.12554 0.146499 9.05816 0.0885551C8.99078 0.0306107 8.90464 -0.000856839 8.81577 1.77524e-05H5.80553C5.71666 -0.000856839 5.63052 0.0306107 5.56314 0.0885551C5.49576 0.146499 5.45175 0.226967 5.43932 0.314958L5.15733 2.30348C4.70488 2.4914 4.27891 2.73762 3.89025 3.0359L2.01159 2.28151C1.92877 2.24787 1.83651 2.24568 1.75219 2.27536C1.66787 2.30504 1.59732 2.36454 1.55383 2.44264L0.0523663 5.04639C0.00593456 5.12361 -0.0103981 5.21524 0.00649277 5.30375C0.0233836 5.39226 0.0723123 5.47143 0.143919 5.52613L1.72595 6.76758C1.69417 7.01047 1.67705 7.25505 1.67468 7.5C1.67692 7.74495 1.69404 7.98954 1.72595 8.23242L0.143919 9.47387C0.0723123 9.52857 0.0233836 9.60774 0.00649277 9.69625C-0.0103981 9.78476 0.00593456 9.87639 0.0523663 9.95361L1.55383 12.5574C1.59732 12.6355 1.66787 12.695 1.75219 12.7246C1.83651 12.7543 1.92877 12.7521 2.01159 12.7185L3.88292 11.9641C4.27232 12.2613 4.69814 12.5074 5.15001 12.6965L5.43199 14.685C5.44443 14.773 5.48844 14.8535 5.55581 14.9114C5.62319 14.9694 5.70934 15.0009 5.7982 15H8.80112C8.88999 15.0009 8.97614 14.9694 9.04351 14.9114C9.11089 14.8535 9.1549 14.773 9.16734 14.685L9.44932 12.6965C9.90177 12.5086 10.3277 12.2624 10.7164 11.9641L12.5877 12.7185C12.6706 12.7521 12.7628 12.7543 12.8471 12.7246C12.9315 12.695 13.002 12.6355 13.0455 12.5574L14.547 9.95361C14.5934 9.87639 14.6097 9.78476 14.5928 9.69625C14.5759 9.60774 14.527 9.52857 14.4554 9.47387L12.8844 8.23242ZM7.30699 10.1294C6.78679 10.1301 6.27806 9.97652 5.84518 9.68804C5.4123 9.39956 5.07471 8.98916 4.87514 8.50876C4.67557 8.02837 4.62297 7.49957 4.72401 6.98928C4.82506 6.47899 5.07519 6.01013 5.44277 5.64204C5.81035 5.27395 6.27886 5.02316 6.78901 4.92141C7.29916 4.81965 7.82803 4.87151 8.3087 5.07041C8.78937 5.26932 9.20024 5.60633 9.48933 6.03881C9.77841 6.47129 9.93271 6.9798 9.93271 7.5C9.9332 7.84512 9.86563 8.18696 9.73389 8.50595C9.60215 8.82494 9.40882 9.11483 9.16495 9.35904C8.92108 9.60325 8.63146 9.79698 8.31266 9.92917C7.99385 10.0614 7.65211 10.1294 7.30699 10.1294V10.1294Z" fill="#B7AFFE"/>
</svg>
