<svg width="14" height="14" viewBox="0 0 14 14" fill="none" xmlns="http://www.w3.org/2000/svg">
<path d="M7 2.64151C6.13797 2.64151 5.2953 2.89713 4.57855 3.37605C3.8618 3.85496 3.30316 4.53567 2.97328 5.33208C2.6434 6.12849 2.55708 7.00484 2.72526 7.8503C2.89343 8.69576 3.30854 9.47237 3.91808 10.0819C4.52763 10.6915 5.30424 11.1066 6.1497 11.2747C6.99517 11.4429 7.87151 11.3566 8.66792 11.0267C9.46433 10.6968 10.145 10.1382 10.624 9.42145C11.1029 8.7047 11.3585 7.86203 11.3585 7C11.3567 5.84459 10.897 4.73701 10.08 3.92001C9.26299 3.10301 8.15541 2.64326 7 2.64151ZM7 10.566C6.2947 10.566 5.60525 10.3569 5.01882 9.96505C4.43238 9.57321 3.97532 9.01627 3.70541 8.36466C3.43551 7.71306 3.36489 6.99604 3.50248 6.3043C3.64008 5.61256 3.97971 4.97715 4.47843 4.47843C4.97715 3.97971 5.61256 3.64008 6.3043 3.50248C6.99604 3.36489 7.71306 3.43551 8.36466 3.70541C9.01627 3.97532 9.57321 4.43238 9.96505 5.01882C10.3569 5.60525 10.566 6.2947 10.566 7C10.566 7.94577 10.1903 8.85281 9.52157 9.52157C8.85281 10.1903 7.94577 10.566 7 10.566ZM6.60377 0.924528V0.396226C6.60377 0.291141 6.64552 0.190359 6.71983 0.116052C6.79413 0.0417451 6.89491 0 7 0C7.10509 0 7.20587 0.0417451 7.28017 0.116052C7.35448 0.190359 7.39623 0.291141 7.39623 0.396226V0.924528C7.39623 1.02961 7.35448 1.1304 7.28017 1.2047C7.20587 1.27901 7.10509 1.32075 7 1.32075C6.89491 1.32075 6.79413 1.27901 6.71983 1.2047C6.64552 1.1304 6.60377 1.02961 6.60377 0.924528ZM2.04717 2.60849C1.97273 2.53405 1.93092 2.4331 1.93092 2.32783C1.93092 2.22256 1.97273 2.12161 2.04717 2.04717C2.12161 1.97273 2.22256 1.93092 2.32783 1.93092C2.4331 1.93092 2.53405 1.97273 2.60849 2.04717L2.98491 2.42358C3.05792 2.49876 3.09877 2.59944 3.09877 2.70425C3.09877 2.80905 3.05792 2.90973 2.98491 2.98491C2.94757 3.02177 2.90318 3.05072 2.85438 3.07001C2.80558 3.08931 2.7534 3.09854 2.70094 3.09717C2.64954 3.09803 2.5985 3.08853 2.55085 3.06924C2.5032 3.04996 2.45992 3.02127 2.42358 2.98491L2.04717 2.60849ZM1.32075 7C1.32075 7.10509 1.27901 7.20587 1.2047 7.28017C1.1304 7.35448 1.02961 7.39623 0.924528 7.39623H0.396226C0.291141 7.39623 0.190359 7.35448 0.116052 7.28017C0.0417451 7.20587 0 7.10509 0 7C0 6.89491 0.0417451 6.79413 0.116052 6.71983C0.190359 6.64552 0.291141 6.60377 0.396226 6.60377H0.924528C1.02961 6.60377 1.1304 6.64552 1.2047 6.71983C1.27901 6.79413 1.32075 6.89491 1.32075 7ZM2.98491 11.0151C3.05792 11.0903 3.09877 11.191 3.09877 11.2958C3.09877 11.4006 3.05792 11.5012 2.98491 11.5764L2.60849 11.9528C2.53388 12.0245 2.43457 12.0647 2.33113 12.0651C2.22592 12.0637 2.12486 12.0238 2.04717 11.9528C1.97415 11.8777 1.93331 11.777 1.93331 11.6722C1.93331 11.5674 1.97415 11.4667 2.04717 11.3915L2.42358 11.0151C2.49876 10.9421 2.59944 10.9012 2.70425 10.9012C2.80905 10.9012 2.90973 10.9421 2.98491 11.0151ZM7.39623 13.0755V13.6038C7.39623 13.7089 7.35448 13.8096 7.28017 13.8839C7.20587 13.9583 7.10509 14 7 14C6.89491 14 6.79413 13.9583 6.71983 13.8839C6.64552 13.8096 6.60377 13.7089 6.60377 13.6038V13.0755C6.60377 12.9704 6.64552 12.8696 6.71983 12.7953C6.79413 12.721 6.89491 12.6792 7 12.6792C7.10509 12.6792 7.20587 12.721 7.28017 12.7953C7.35448 12.8696 7.39623 12.9704 7.39623 13.0755ZM11.9528 11.3915C12.0258 11.4667 12.0667 11.5674 12.0667 11.6722C12.0667 11.777 12.0258 11.8777 11.9528 11.9528C11.8751 12.0238 11.7741 12.0637 11.6689 12.0651C11.5654 12.0647 11.4661 12.0245 11.3915 11.9528L11.0151 11.5764C10.9407 11.502 10.8988 11.401 10.8988 11.2958C10.8988 11.1905 10.9407 11.0895 11.0151 11.0151C11.0895 10.9407 11.1905 10.8988 11.2958 10.8988C11.401 10.8988 11.502 10.9407 11.5764 11.0151L11.9528 11.3915ZM14 7C14 7.10509 13.9583 7.20587 13.8839 7.28017C13.8096 7.35448 13.7089 7.39623 13.6038 7.39623H13.0755C12.9704 7.39623 12.8696 7.35448 12.7953 7.28017C12.721 7.20587 12.6792 7.10509 12.6792 7C12.6792 6.89491 12.721 6.79413 12.7953 6.71983C12.8696 6.64552 12.9704 6.60377 13.0755 6.60377H13.6038C13.7089 6.60377 13.8096 6.64552 13.8839 6.71983C13.9583 6.79413 14 6.89491 14 7ZM11.9528 2.04717C12.0258 2.12235 12.0667 2.22303 12.0667 2.32783C12.0667 2.43263 12.0258 2.53331 11.9528 2.60849L11.5764 2.98491C11.5401 3.02127 11.4968 3.04996 11.4492 3.06924C11.4015 3.08853 11.3505 3.09803 11.2991 3.09717C11.2466 3.09854 11.1944 3.08931 11.1456 3.07001C11.0968 3.05072 11.0524 3.02177 11.0151 2.98491C10.9421 2.90973 10.9012 2.80905 10.9012 2.70425C10.9012 2.59944 10.9421 2.49876 11.0151 2.42358L11.3915 2.04717C11.4667 1.97415 11.5674 1.93331 11.6722 1.93331C11.777 1.93331 11.8777 1.97415 11.9528 2.04717Z" fill="#FFFDFA"/>
</svg>
