<svg width="15" height="14" viewBox="0 0 15 14" fill="none" xmlns="http://www.w3.org/2000/svg">
<path d="M14.5283 4.75428C14.5283 4.89438 14.4726 5.02875 14.3735 5.12781C14.2745 5.22688 14.1401 5.28253 14 5.28253H12.9435V6.33904C12.9435 6.47914 12.8878 6.61351 12.7888 6.71257C12.6897 6.81164 12.5553 6.86729 12.4152 6.86729C12.2751 6.86729 12.1408 6.81164 12.0417 6.71257C11.9426 6.61351 11.887 6.47914 11.887 6.33904V5.28253H10.8305C10.6904 5.28253 10.556 5.22688 10.4569 5.12781C10.3579 5.02875 10.3022 4.89438 10.3022 4.75428C10.3022 4.61418 10.3579 4.47982 10.4569 4.38075C10.556 4.28168 10.6904 4.22603 10.8305 4.22603H11.887V3.16952C11.887 3.02942 11.9426 2.89506 12.0417 2.79599C12.1408 2.69692 12.2751 2.64127 12.4152 2.64127C12.5553 2.64127 12.6897 2.69692 12.7888 2.79599C12.8878 2.89506 12.9435 3.02942 12.9435 3.16952V4.22603H14C14.1401 4.22603 14.2745 4.28168 14.3735 4.38075C14.4726 4.47982 14.5283 4.61418 14.5283 4.75428ZM8.18921 2.11301H8.71747V2.64127C8.71747 2.78137 8.77312 2.91573 8.87219 3.0148C8.97125 3.11387 9.10562 3.16952 9.24572 3.16952C9.38582 3.16952 9.52018 3.11387 9.61925 3.0148C9.71832 2.91573 9.77397 2.78137 9.77397 2.64127V2.11301H10.3022C10.4423 2.11301 10.5767 2.05736 10.6758 1.95829C10.7748 1.85923 10.8305 1.72486 10.8305 1.58476C10.8305 1.44466 10.7748 1.3103 10.6758 1.21123C10.5767 1.11216 10.4423 1.05651 10.3022 1.05651H9.77397V0.528253C9.77397 0.388152 9.71832 0.253789 9.61925 0.154722C9.52018 0.0556551 9.38582 0 9.24572 0C9.10562 0 8.97125 0.0556551 8.87219 0.154722C8.77312 0.253789 8.71747 0.388152 8.71747 0.528253V1.05651H8.18921C8.04911 1.05651 7.91475 1.11216 7.81568 1.21123C7.71661 1.3103 7.66096 1.44466 7.66096 1.58476C7.66096 1.72486 7.71661 1.85923 7.81568 1.95829C7.91475 2.05736 8.04911 2.11301 8.18921 2.11301ZM12.9633 8.85485C12.9962 8.95794 12.9962 9.06871 12.9633 9.1718C12.6533 10.2827 12.0577 11.2929 11.2359 12.1021C10.4141 12.9112 9.39469 13.491 8.27915 13.7838C7.16362 14.0765 5.99087 14.0719 4.87764 13.7706C3.76441 13.4692 2.74953 12.8815 1.93402 12.066C1.11851 11.2505 0.530821 10.2356 0.229442 9.12236C-0.0719368 8.00913 -0.0764899 6.83638 0.216236 5.72085C0.508962 4.60531 1.08876 3.5859 1.89791 2.76408C2.70706 1.94227 3.71734 1.34671 4.8282 1.0367C4.94079 1.00166 5.062 1.00633 5.17156 1.0499C5.27435 1.09125 5.36153 1.16387 5.42078 1.25748C5.48003 1.35109 5.50834 1.46096 5.50172 1.57155C5.50154 1.61198 5.49486 1.65211 5.48191 1.69041C5.21995 2.63595 5.21348 3.63406 5.46317 4.58292C5.71287 5.53177 6.20979 6.39742 6.90324 7.09154C7.59669 7.78566 8.46185 8.28341 9.41046 8.53403C10.3591 8.78464 11.3572 8.77914 12.303 8.51809L12.4483 8.49167C12.5613 8.49089 12.6717 8.52548 12.7641 8.59061C12.8564 8.65574 12.9261 8.74813 12.9633 8.85485ZM11.6427 9.71986C10.6461 9.8442 9.63431 9.73936 8.68441 9.41332C7.73452 9.08729 6.87161 8.54867 6.16147 7.83853C5.45133 7.12839 4.91271 6.26548 4.58668 5.31558C4.26064 4.36569 4.1558 3.35389 4.28014 2.35733C3.46945 2.73223 2.76128 3.29736 2.21586 4.00466C1.67044 4.71197 1.3039 5.54053 1.1474 6.41989C0.990904 7.29925 1.04908 8.2034 1.31699 9.05545C1.58489 9.9075 2.0546 10.6823 2.68617 11.3138C3.31775 11.9454 4.0925 12.4151 4.94455 12.683C5.7966 12.9509 6.70075 13.0091 7.58011 12.8526C8.45947 12.6961 9.28803 12.3296 9.99534 11.7841C10.7026 11.2387 11.2678 10.5306 11.6427 9.71986Z" fill="#210B54"/>
</svg>
