<svg width="133" height="38" viewBox="0 0 133 38" fill="none" xmlns="http://www.w3.org/2000/svg">
<path d="M1 2.5977V4.52309C1 5.61492 2.50003 5.91667 2.92222 4.90977L4.25431 1.73273C4.658 0.769925 6.08158 0.992084 6.17271 2.03211L9.21246 36.7223C9.23239 36.9497 9.55652 36.9716 9.60679 36.7489L12.743 22.8528C12.907 22.1262 13.9062 22.0367 14.1967 22.7226V22.7226C14.4761 23.3822 15.4269 23.3324 15.6359 22.6472L17.1257 17.7616C17.4419 16.7246 18.9512 16.8616 19.0756 17.9385L19.7065 23.401C19.8319 24.4858 21.3571 24.6132 21.6606 23.5641L26.8099 5.7638C27.0846 4.81394 28.4242 4.79654 28.7235 5.73895L29.1144 6.96952C29.3935 7.84811 30.6495 7.93111 31.0841 7.11816C31.9605 5.4791 33.1371 3.53904 34.404 2.02777C34.9017 1.43411 35.8047 1.71896 35.9571 2.4785L37.1205 8.27756C37.2459 8.90301 37.9253 9.24722 38.5594 9.1774C39.6491 9.05743 40.9338 9.36207 41.856 10.6865C42.3858 11.4475 44.1545 11.5663 44.4352 10.6826V10.6826C44.6151 10.1162 45.3125 9.91385 45.7677 10.296L49.0276 13.0328C49.1372 13.1248 49.2256 13.2394 49.2882 13.3681C50.4482 15.7518 52.0107 18.06 53 19C54.5128 20.4373 58.485 21.8239 60.6363 11.5901C60.8104 10.7615 61.8667 10.4596 62.4237 11.0973L65.0617 14.1173C65.4697 14.5844 66.1992 14.5788 66.6058 14.1104C69.05 11.2949 76.7448 2.99652 80.5 5.5C85 8.5 85.1204 15.0115 86.8729 15.0115C87.8327 15.0115 88.4858 14.1841 88.9043 13.209C89.256 12.3897 90.4603 12.0624 91.0199 12.7565L93.7011 16.0817C94.0447 16.5079 94.6672 16.5785 95.0976 16.2402L98.9296 13.2278C98.9764 13.1909 99.018 13.1523 99.0573 13.1074C101.123 10.7469 105.546 4.01888 110.5 8.5L114.552 12.4028C114.979 12.8143 115.669 12.7656 116.034 12.2981L118.373 9.30328C118.717 8.86213 119.357 8.78963 119.791 9.14246L121.648 10.6499C121.826 10.7946 122.048 10.8736 122.278 10.8736H127.385C127.791 10.8736 128.157 11.1194 128.311 11.4955L132 20.5287" stroke="#DA1414" stroke-width="2" stroke-linecap="round"/>
</svg>
