<svg width="133" height="35" viewBox="0 0 133 35" fill="none" xmlns="http://www.w3.org/2000/svg">
<path d="M1 12.5843C1.86184 14.382 3.58553 19.8652 3.58553 27.4157C3.54834 25.7835 4.47456 21.0687 5.31453 16.8883C5.52408 15.8454 6.96581 15.8094 7.19844 16.8474C8.08197 20.7894 9.16664 26.2921 10.0068 32.2481C10.1708 33.4099 12.0018 33.4592 12.1948 32.3018L12.3296 31.4935C12.4606 30.7082 13.412 30.3834 13.9959 30.9247L15.2462 32.0838C15.81 32.6065 16.7282 32.324 16.9006 31.5748L18.3938 25.0856C18.6125 24.1354 19.9227 24.0279 20.2933 24.9297L22.0791 29.2756C22.4149 30.0928 23.5265 30.0919 23.8074 29.2542C25.3216 24.7389 27.4036 15.9807 27.7114 4.70988C27.7153 4.56881 27.7486 4.42859 27.8097 4.30133L28.5595 2.73714C28.9765 1.86736 30.2617 2.0338 30.4434 2.9811L30.6576 4.09839C30.8322 5.00878 32.0443 5.21222 32.5065 4.40871L33.9474 1.90405C34.3753 1.16033 35.4795 1.26537 35.7595 2.07642L38.503 10.0248C38.7153 10.6399 39.4493 10.8916 39.9944 10.5363L45.4996 6.94768C45.6867 6.8257 45.9321 6.84263 46.1007 6.98916L49.0188 9.52546C50.3093 10.647 51.2906 12.0808 51.8691 13.6896L54.2005 20.174C54.4771 20.9431 55.5095 21.0736 55.9688 20.3974L61.7425 11.8961C62.0047 11.5099 62.4992 11.3566 62.934 11.5266L68.6621 13.767C68.9311 13.8722 69.2325 13.8559 69.4887 13.7223L76.462 10.0859C76.7047 9.95929 76.8828 9.73962 76.9695 9.47995C77.4569 8.01953 78.6558 5.31675 80.6094 2.90361C81.0539 2.35453 81.9007 2.49529 82.1941 3.13793L85.8011 11.0381C85.8606 11.1685 85.8914 11.3101 85.8914 11.4534V13.8664C85.8914 14.6642 86.7798 15.1408 87.4444 14.6996L89.9811 13.016C90.3634 12.7623 90.8693 12.8012 91.2082 13.1105L93.3918 15.1033C93.7791 15.4567 94.3735 15.451 94.754 15.0903L102.884 7.38161C103.265 7.02089 103.859 7.01522 104.246 7.36863L106.229 9.17768C106.652 9.56369 107.312 9.51636 107.675 9.07395L109.019 7.43914C109.344 7.0429 109.917 6.95726 110.344 7.24087L113.803 9.5361C114.126 9.75062 114.544 9.75885 114.875 9.55722L118.654 7.25833C119.124 6.97245 119.734 7.12161 120.062 7.5632C121.362 9.31336 123.596 11.3673 125.725 10.5803C126.344 10.3515 127.125 10.4657 127.434 11.0485C128.739 13.5082 130.827 17.2035 132 18.427" stroke="#23A757" stroke-width="2" stroke-linecap="round"/>
</svg>
