<svg width="133" height="40" viewBox="0 0 133 40" fill="none" xmlns="http://www.w3.org/2000/svg">
<path d="M1 5.65116L3.50086 8.64476C3.84158 9.05261 4.44181 9.12271 4.86734 8.80435L6.55588 7.54108C6.93965 7.25397 7.46953 7.28347 7.77381 7.65377C8.42603 8.4475 9.46968 9.9962 9.88136 12.1628C10.5 15.4186 9.88136 26.5814 9.88136 26.5814V38.3777C9.88136 38.506 10.0999 38.5206 10.1122 38.3928C10.4811 34.5577 11.2923 27.3185 12.5458 22.3953C14.1934 15.9239 17.1401 8.33189 19.5429 6.07832C19.8502 5.79011 20.3131 5.82777 20.6666 6.05704C21.7729 6.77468 24.3134 8.09709 26.7559 7.04651C28.6353 6.23814 31.467 4.33704 33.5168 2.88062C35.0995 1.75605 37.183 1.57885 38.9961 2.27333C40.3755 2.80165 42.1434 3.38475 44.0746 3.7907C47.7399 4.56115 53.8631 4.05537 55.8584 3.85889C56.2838 3.817 56.677 3.63326 56.9894 3.34147L57.9235 2.46875C58.294 2.12271 58.7815 1.93023 59.2884 1.93115C62.8162 1.93754 77.1894 1.98853 82 2.39535C87.5 2.86047 90.8441 3.7907 92.922 3.7907C95 3.7907 132 1 132 1" stroke="#23A757" stroke-width="2" stroke-linecap="round"/>
</svg>
